<?xml version="1.0" standalone="no"?>
<!DOCTYPE svg PUBLIC "-//W3C//DTD SVG 20010904//EN"
 "http://www.w3.org/TR/2001/REC-SVG-20010904/DTD/svg10.dtd">
<svg version="1.0" xmlns="http://www.w3.org/2000/svg"
 width="919.000000pt" height="394.000000pt" viewBox="0 0 919.000000 394.000000"
 preserveAspectRatio="xMidYMid meet">

<g transform="translate(0.000000,394.000000) scale(0.100000,-0.100000)"
fill="#000000" stroke="none">
<path d="M3083 3672 l-322 -267 -1 -622 0 -623 75 0 75 0 0 540 0 539 240 201
240 201 0 -354 c0 -195 -3 -490 -7 -656 l-6 -301 -76 -42 c-154 -85 -530 -319
-625 -389 -4 -4 13 -37 38 -75 l46 -69 0 -382 0 -383 75 0 75 0 0 424 0 424
83 53 c121 78 379 230 383 226 2 -2 -1 -392 -6 -866 -6 -474 -8 -867 -5 -872
4 -5 52 -9 109 -9 l103 0 6 263 c4 144 7 379 7 522 0 143 3 446 7 674 l6 414
142 68 c564 268 1132 430 1725 491 186 19 659 16 850 -5 605 -68 1176 -240
1752 -528 l118 -59 2 -878 3 -877 73 -3 72 -3 0 836 c0 459 3 835 6 835 9 0
185 -105 333 -198 l134 -85 -8 -424 -7 -423 110 0 110 0 7 344 c7 311 9 343
24 339 18 -4 116 122 106 137 -3 5 -33 28 -67 52 l-60 43 6 215 c3 118 8 483
11 810 3 327 8 672 11 767 l6 172 -108 3 -109 3 -327 -273 -328 -272 0 -370 0
-370 80 0 80 0 0 293 0 294 223 184 c122 101 230 191 241 199 18 14 18 -2 12
-625 -3 -352 -9 -695 -12 -761 l-6 -122 -106 68 c-429 271 -961 522 -1399 659
-483 151 -935 221 -1423 221 -431 0 -792 -45 -1199 -151 -299 -77 -625 -194
-930 -333 -79 -36 -145 -66 -147 -66 -2 0 -2 141 1 313 3 171 7 507 10 745 l5
432 -107 0 -108 0 -322 -268z"/>
<path d="M1343 2332 c-70 -25 -114 -60 -145 -118 -45 -83 -50 -146 -46 -575 5
-443 6 -449 79 -533 54 -61 122 -86 233 -86 187 0 282 83 307 270 7 49 9 220
7 452 -4 356 -5 376 -26 429 -26 67 -80 124 -142 152 -64 29 -199 34 -267 9z
m194 -196 l28 -24 3 -404 c2 -264 -1 -416 -7 -439 -18 -59 -91 -85 -150 -54
-51 26 -52 38 -49 484 l3 413 28 24 c39 33 105 33 144 0z"/>
<path d="M3900 2331 c-78 -28 -142 -98 -164 -183 -15 -56 -17 -114 -14 -493
l3 -430 28 -57 c51 -105 131 -148 273 -148 141 0 213 40 266 148 32 64 33 72
37 209 l3 143 -95 0 -95 0 -4 -124 c-4 -142 -15 -168 -77 -187 -54 -16 -111
11 -128 61 -15 45 -18 768 -3 822 14 48 43 68 100 68 79 -1 101 -35 108 -167
l5 -93 93 0 94 0 0 85 c0 186 -53 294 -169 343 -59 24 -196 26 -261 3z"/>
<path d="M4632 2333 c-68 -21 -133 -78 -163 -145 -24 -53 -24 -54 -27 -477 -2
-283 1 -442 8 -477 16 -75 64 -140 130 -178 53 -30 60 -31 170 -31 99 0 121 3
155 21 57 31 94 71 124 134 l26 55 0 450 c0 436 -1 451 -21 496 -51 109 -133
160 -269 165 -53 3 -98 -2 -133 -13z m186 -193 c12 -11 25 -33 29 -48 5 -15 8
-206 8 -424 0 -387 0 -397 -21 -425 -41 -55 -127 -55 -168 0 -20 28 -21 40
-24 405 -2 207 0 397 3 421 9 63 41 91 103 91 35 0 54 -6 70 -20z"/>
<path d="M7643 2332 c-74 -27 -118 -64 -150 -129 l-28 -58 -3 -444 c-3 -498
-1 -513 65 -591 61 -71 100 -85 233 -85 132 0 169 13 232 83 55 61 72 124 72
277 l1 130 -95 0 -95 0 -5 -125 c-3 -71 -10 -134 -17 -146 -28 -49 -122 -53
-165 -7 l-23 25 -3 391 c-2 216 0 407 3 426 10 52 45 81 100 81 38 0 52 -5 76
-29 28 -29 29 -32 29 -130 l0 -101 100 0 100 0 0 73 c0 136 -34 251 -92 304
-69 65 -232 92 -335 55z"/>
<path d="M470 1686 l0 -656 100 0 100 0 0 245 0 245 77 0 c115 0 188 24 245
81 68 68 78 111 78 330 0 206 -14 263 -80 329 -59 59 -107 71 -327 77 l-193 6
0 -657z m372 436 c21 -21 23 -33 26 -164 6 -229 -4 -248 -125 -248 l-73 0 0
221 0 221 75 -4 c61 -3 79 -7 97 -26z"/>
<path d="M1910 1685 l0 -655 90 0 90 0 2 464 3 464 125 -464 125 -464 108 0
107 0 -2 653 -3 652 -90 0 -90 0 -3 -380 -3 -380 -103 380 -103 380 -127 3
-126 3 0 -656z"/>
<path d="M5197 2333 c-4 -3 -7 -298 -7 -655 l0 -648 95 0 95 0 1 463 0 462 19
-65 c10 -36 66 -244 125 -462 l108 -398 103 0 104 0 0 655 0 656 -87 -3 -88
-3 -5 -380 -5 -380 -94 350 c-52 193 -98 365 -103 383 l-9 32 -123 0 c-67 0
-126 -3 -129 -7z"/>
<path d="M5990 1685 l0 -655 90 0 90 0 2 468 3 467 126 -465 125 -465 107 -3
107 -3 -2 653 -3 653 -87 3 -88 3 -1 -388 c0 -213 -3 -381 -7 -373 -4 8 -52
182 -107 385 l-100 370 -127 3 -128 3 0 -656z"/>
<path d="M6787 2333 c-4 -3 -7 -298 -7 -655 l0 -648 280 0 280 0 0 95 0 95
-175 0 -175 0 0 190 0 190 140 0 140 0 0 95 0 95 -140 0 -140 0 0 180 0 180
175 0 175 0 0 95 0 95 -273 0 c-151 0 -277 -3 -280 -7z"/>
</g>
</svg>
